<svg width="31" height="33" viewBox="0 0 31 33" fill="none" xmlns="http://www.w3.org/2000/svg">
<path d="M16.8562 0.585148C16.493 0.211286 16.0071 0.00292852 15.5018 0.00434063C14.9965 0.00575274 14.5116 0.216823 14.1502 0.592711C11.6418 3.22584 5.8125 10.2658 5.8125 18.7489C5.8125 23.8563 10.611 28.8751 15.5 28.8751C20.389 28.8751 25.1875 23.8075 25.1875 18.6444C25.1875 10.1641 19.3595 3.19009 16.8562 0.585148Z" fill="#00CF66"/>
<path d="M14.1483 0.592651C11.6418 3.22578 5.8125 10.2658 5.8125 18.7488C5.8125 23.8563 10.611 28.875 15.5 28.875V0.00415128C14.9943 0.0036495 14.5087 0.215053 14.1483 0.592651Z" fill="#00B157"/>
<path d="M19.871 19.4968C19.7614 19.3569 19.604 19.2689 19.4335 19.2524C19.263 19.2359 19.0933 19.2922 18.9617 19.4088L16.1459 21.9072V16.8438L18.4709 14.9875C18.6079 14.8781 18.6985 14.7153 18.7227 14.5348C18.7469 14.3543 18.7028 14.1709 18.6 14.025C18.4973 13.8792 18.3443 13.7827 18.1747 13.7569C18.0051 13.7312 17.8329 13.7781 17.6959 13.8875L16.1459 15.125V10.3125C16.1459 10.1302 16.0778 9.95533 15.9567 9.82639C15.8356 9.69746 15.6713 9.62503 15.5 9.62503C15.3287 9.62503 15.1645 9.69746 15.0434 9.82639C14.9222 9.95533 14.8542 10.1302 14.8542 10.3125V15.125L13.3042 13.8875C13.1672 13.7781 12.9949 13.7312 12.8254 13.7569C12.6558 13.7827 12.5028 13.8792 12.4 14.025C12.2973 14.1709 12.2531 14.3543 12.2773 14.5348C12.3016 14.7153 12.3922 14.8781 12.5292 14.9875L14.8542 16.8438V21.9072L12.0384 19.4088C11.9731 19.3511 11.8979 19.3075 11.8168 19.2807C11.7358 19.2539 11.6506 19.2443 11.5661 19.2526C11.4816 19.2608 11.3995 19.2867 11.3244 19.3287C11.2493 19.3707 11.1827 19.4281 11.1284 19.4975C11.0741 19.567 11.0332 19.6471 11.008 19.7333C10.9828 19.8196 10.9738 19.9103 10.9816 20.0002C10.9893 20.0902 11.0136 20.1776 11.0531 20.2576C11.0926 20.3375 11.1465 20.4084 11.2117 20.4662L14.8542 23.6975V30.9375C14.8542 31.1199 14.9222 31.2947 15.0434 31.4237C15.1645 31.5526 15.3287 31.625 15.5 31.625C15.6713 31.625 15.8356 31.5526 15.9567 31.4237C16.0778 31.2947 16.1459 31.1199 16.1459 30.9375V23.6975L19.7884 20.4662C19.8537 20.4084 19.9076 20.3375 19.9471 20.2574C19.9866 20.1774 20.0109 20.0898 20.0186 19.9998C20.0263 19.9097 20.0172 19.819 19.9919 19.7327C19.9665 19.6464 19.9255 19.5662 19.871 19.4968Z" fill="#00893E"/>
</svg>
